<svg width="152" height="40" viewBox="0 0 152 40" fill="none" xmlns="http://www.w3.org/2000/svg">
<g clip-path="url(#clip0_173_182)">
<path d="M22.7244 3.43475L19.2071 2.49227L16.243 13.5545L13.5669 3.56744L10.0495 4.50992L12.9408 15.3002L5.73929 8.09868L3.1644 10.6736L11.0636 18.5728L1.22641 15.9369L0.283936 19.4542L11.0323 22.3343C10.9092 21.8035 10.8441 21.2505 10.8441 20.6822C10.8441 16.66 14.1048 13.3993 18.127 13.3993C22.1493 13.3993 25.4099 16.66 25.4099 20.6822C25.4099 21.2468 25.3456 21.7964 25.2241 22.3241L34.9924 24.9415L35.9348 21.4241L25.1437 18.5327L34.9815 15.8966L34.039 12.3793L23.2484 15.2706L30.4499 8.06911L27.875 5.49422L20.0854 13.2839L22.7244 3.43475Z" fill="#155EEF"/>
<path d="M25.2138 22.365C24.9122 23.64 24.2756 24.7853 23.402 25.703L30.4787 32.7797L33.0536 30.2048L25.2138 22.365Z" fill="#155EEF"/>
<path d="M23.3306 25.7769C22.4465 26.6799 21.3292 27.3538 20.0763 27.701L22.6514 37.3113L26.1687 36.3688L23.3306 25.7769Z" fill="#155EEF"/>
<path d="M19.9449 27.7362C19.3636 27.8856 18.7543 27.9651 18.1264 27.9651C17.4537 27.9651 16.8023 27.8738 16.1839 27.7031L13.6065 37.3221L17.1238 38.2645L19.9449 27.7362Z" fill="#155EEF"/>
<path d="M16.0595 27.6677C14.8257 27.3031 13.7283 26.6207 12.8623 25.7151L5.76819 32.8092L8.34307 35.3841L16.0595 27.6677Z" fill="#155EEF"/>
<path d="M12.8038 25.6524C11.9526 24.7411 11.3326 23.6111 11.0375 22.3558L1.2373 24.9818L2.17977 28.4991L12.8038 25.6524Z" fill="#155EEF"/>
</g>
<path d="M57.1001 10.7576V23.4326L48.9751 10.7576H45.7251V28.2577H48.9751V15.6826L57.1001 28.2577H60.3501V10.7576H57.1001Z" fill="#101828"/>
<path d="M61.8146 14.0326H65.1646V10.7576H61.8146V14.0326ZM61.8646 28.2577V15.7576H65.1146V28.2577H61.8646Z" fill="#101828"/>
<path d="M79.098 22.0076C79.098 17.6826 76.023 15.6326 72.773 15.6076C69.498 15.5826 66.4729 17.6826 66.4729 22.0076C66.4729 26.3326 69.498 28.4326 72.773 28.4076C75.748 28.3827 77.798 27.0077 78.748 24.7326L76.223 23.6826C75.448 25.2326 74.223 25.7826 72.773 25.8076C71.523 25.8326 70.0979 25.2326 69.7979 23.0076H79.023C79.073 22.6826 79.098 22.3576 79.098 22.0076ZM72.773 18.1826C74.023 18.2076 75.298 18.8826 75.698 20.6826H69.8479C70.273 18.8576 71.548 18.1576 72.773 18.1826Z" fill="#101828"/>
<path d="M86.6089 18.0826V15.6076H84.5589V12.2576L81.3089 13.2576V15.6076H79.2589V18.0826H81.3089V24.5576C81.3089 27.0076 81.5089 28.2577 85.3089 28.2577H86.1839V25.4076H85.3089C84.7089 25.4076 84.5589 25.3076 84.5589 24.5576V18.0826H86.6089Z" fill="#101828"/>
<path d="M91.4382 25.5326L98.3382 18.4826V15.7576H87.9882V18.4826H94.6882L87.7882 25.5326V28.2577H98.4132V25.5326H91.4382Z" fill="#101828"/>
<path d="M99.5784 24.7326L102.853 24.2326C103.078 25.4826 104.553 25.9576 105.453 25.9576C106.378 25.9576 107.978 25.7576 107.978 24.2576C107.978 21.3326 99.9534 24.9826 99.9534 19.3826C99.9534 15.7826 104.128 15.5826 105.453 15.5826C106.703 15.5826 110.328 15.7826 111.078 18.6826L107.978 19.3326C107.703 18.0076 106.303 17.7576 105.553 17.7576C104.803 17.7576 103.203 17.9326 103.203 19.3826C103.203 22.2826 111.228 18.5826 111.228 24.2576C111.228 28.0826 106.828 28.4076 105.453 28.4076C104.203 28.4076 100.228 28.0826 99.5784 24.7326Z" fill="#101828"/>
<path d="M115.45 22.0076C115.45 25.0576 117.075 25.9826 118.775 25.9576C120.3 25.9326 121.35 25.3077 121.975 23.5577L124.65 24.8576C123.675 27.4076 121.3 28.3827 118.775 28.4076C115.5 28.4326 112.2 26.3326 112.2 22.0076C112.2 17.6826 115.5 15.5826 118.775 15.6076C121.3 15.6326 123.675 16.6076 124.65 19.1576L121.975 20.4576C121.35 18.7076 120.3 18.0826 118.775 18.0576C117.075 18.0326 115.45 18.9576 115.45 22.0076Z" fill="#101828"/>
<path d="M133.375 15.5576C131.7 15.5576 130.175 16.4327 129.2 18.3076V10.7576H125.95V28.2577H129.2V23.8327C129.2 18.1076 131.575 17.6326 132.45 17.6326C133.85 17.6326 134.05 19.0826 134.05 21.2076V28.2577H137.3V21.2076C137.3 18.5576 136.875 15.5576 133.375 15.5576Z" fill="#101828"/>
<path d="M151.022 22.0076C151.022 17.6826 147.947 15.6326 144.697 15.6076C141.422 15.5826 138.397 17.6826 138.397 22.0076C138.397 26.3326 141.422 28.4326 144.697 28.4076C147.672 28.3827 149.722 27.0077 150.672 24.7326L148.147 23.6826C147.372 25.2326 146.147 25.7826 144.697 25.8076C143.447 25.8326 142.022 25.2326 141.722 23.0076H150.947C150.997 22.6826 151.022 22.3576 151.022 22.0076ZM144.697 18.1826C145.947 18.2076 147.222 18.8826 147.622 20.6826H141.772C142.197 18.8576 143.472 18.1576 144.697 18.1826Z" fill="#101828"/>
<defs>
<clipPath id="clip0_173_182">
<rect width="36.6667" height="36.6667" fill="white" transform="translate(0 1.66667)"/>
</clipPath>
</defs>
</svg>
