<?xml version="1.0" encoding="UTF-8"?>
<svg xmlns="http://www.w3.org/2000/svg" xmlns:xlink="http://www.w3.org/1999/xlink" width="25px" height="25px" viewBox="0 0 25 25" version="1.1">
<g id="surface1">
<path style=" stroke:none;fill-rule:nonzero;fill:rgb(0%,0%,0%);fill-opacity:1;" d="M 21.296875 21.316406 C 21.101562 17.566406 20.097656 15.066406 18.839844 13.453125 L 18.839844 18.058594 L 17.082031 18.058594 L 17.871094 19.894531 L 14.453125 24.863281 C 16.074219 24.648438 17.34375 24.128906 18.078125 23.324219 C 18.078125 23.324219 19.765625 23.234375 19.796875 23.234375 C 20.679688 23.175781 21.347656 22.316406 21.296875 21.316406 Z M 21.296875 21.316406 "/>
<path style=" stroke:none;fill-rule:nonzero;fill:rgb(0%,0%,0%);fill-opacity:1;" d="M 7.917969 18.058594 L 6.160156 18.058594 L 6.160156 13.453125 C 4.90625 15.066406 3.898438 17.566406 3.703125 21.316406 C 3.652344 22.316406 4.320312 23.175781 5.203125 23.234375 C 5.234375 23.234375 6.925781 23.320312 6.925781 23.320312 C 7.675781 24.171875 8.988281 24.652344 10.550781 24.859375 L 7.132812 19.894531 Z M 7.917969 18.058594 "/>
<path style=" stroke:none;fill-rule:nonzero;fill:rgb(0%,0%,0%);fill-opacity:1;" d="M 15.847656 17.277344 L 18.039062 17.277344 L 18.039062 12.589844 C 17.621094 12.214844 17.238281 11.910156 16.839844 11.667969 C 16.835938 11.667969 12.46875 22.4375 12.46875 22.4375 L 8.132812 11.648438 C 7.71875 11.890625 7.308594 12.203125 6.890625 12.589844 L 6.890625 17.277344 L 9.085938 17.277344 L 7.996094 19.820312 L 11.542969 24.972656 C 11.855469 24.992188 12.175781 25 12.503906 25 C 12.808594 25 13.101562 24.992188 13.390625 24.976562 L 16.933594 19.820312 Z M 15.847656 17.277344 "/>
<path style=" stroke:none;fill-rule:nonzero;fill:rgb(0%,0%,0%);fill-opacity:1;" d="M 7.765625 9.328125 C 8.660156 11.636719 10.339844 13.15625 12.5 13.15625 C 14.566406 13.15625 16.355469 11.695312 17.238281 9.328125 C 18.164062 9.242188 18.648438 8.34375 18.832031 7.289062 C 19.046875 6.027344 18.59375 5.414062 17.796875 5.273438 C 17.523438 2.3125 16.671875 0 12.5 0 C 8.304688 0 7.476562 2.3125 7.207031 5.273438 C 6.40625 5.414062 5.953125 6.027344 6.171875 7.289062 C 6.351562 8.359375 6.855469 9.246094 7.765625 9.328125 Z M 13.476562 4.449219 C 13.738281 4.976562 14.488281 6.003906 16.445312 6.464844 C 16.257812 9.503906 14.65625 11.65625 12.5 11.65625 C 10.46875 11.65625 9.046875 9.785156 8.644531 7.207031 C 11.421875 7.015625 13.203125 4.8125 13.476562 4.449219 Z M 13.476562 4.449219 "/>
</g>
</svg>
